; OM File Header - Saved 2012/06/11 18:26:56
; (6.050003 :patc (om-make-point 24 24) (om-make-point 50 50) (om-make-point 500 400) "" 183 0 nil "2012/03/30 17:17:36")
; End File Header
(in-package :om)(load-lib-for (quote nil))(setf *om-current-persistent* (om-load-patch1 "get chord seq for one track" (quote ((om-load-boxcall (quote lispfun) "LIST" (quote list) (quote ((om-load-inputfun (quote input-funbox) "add-input" "add-input" nil) (om-load-inputfun (quote input-funbox) "add-input" "add-input" nil) (om-load-inputfun (quote input-funbox) "add-input" "add-input" nil))) (om-make-point 437 508) nil nil nil nil 1) (om-load-boxout "output 2" 1 (om-make-point 447 630) (quote ((om-load-inputfun (quote input-funbox) "" "out" nil))) nil nil) (om-load-boxcall (quote abstraction) "get ternary tuples" (om-load-lisp-abspatch "get ternary tuples" 6.050003 ";;; Edit a valid LAMBDA EXPRESSION for \"get tuples\"$;;; e.g. (lambda (arg1 arg2 ...) ( ... ))$$(lambda (track) $$(getTuplesFromScoreParam track)$$)") (quote ((om-load-inputfun (quote input-funbox) "" "TRACK" nil))) (om-make-point 548 529) nil nil nil "get ternary tuples") (om-load-boxcall (quote lispfun) "THIRD" (quote third) (quote ((om-load-inputfun (quote input-funbox) "LIST" "LIST" nil))) (om-make-point 376 278) nil nil nil nil 1) (om-load-boxcall (quote abstraction) "transform track" (om-load-lisp-abspatch "transform track" 6.050003 ";;; Edit a valid LAMBDA EXPRESSION for \"lispfunction\"$;;; e.g. (lambda (arg1 arg2 ...) ( ... ))$$(lambda (track) $$(getScoreParamFromSol track)$$$)") (quote ((om-load-inputfun (quote input-funbox) "" "TRACK" nil))) (om-make-point 201 194) nil nil nil "transform track") (om-load-boxcall (quote genfun) "OM*" (quote om*) (quote ((om-load-inputfun (quote input-funbox) "number or list" "ARG1" 0) (om-load-inputfun (quote input-funbox) "number or list" "ARG2" 100))) (om-make-point 145 333) nil nil nil nil 1) (om-load-boxcall (quote genfun) "MF-INFO" (quote mf-info) (quote ((om-load-inputfun (quote input-funbox) "a Midifile object" "SELF" nil) (om-load-inputfun (quote input-funbox) "a track number or nil" "TRACKNUM" 3))) (om-make-point 154 157) nil nil nil nil 1) (om-load-editor-box1 "CHORD-SEQ" (quote chord-seq) (quote ((om-load-inputfun (quote input-funbox) "object" "self" nil) (om-load-inputfun (quote input-funbox) "pitches (mc): list or list of lists" "lmidic" (list 6000)) (om-load-inputfun (quote input-funbox) "onsets (ms): list" "lonset" (list 0 1000)) (om-load-inputfun (quote input-funbox) "durations (ms): list or list of lists" "ldur" (list 1000)) (om-load-inputfun (quote input-funbox) "velocities (0-127): list or list of lists" "lvel" (list 100)) (om-load-inputfun (quote input-funbox) "offsets (ms): list or list of lists" "loffset" (list 0)) (om-load-inputfun (quote input-funbox) "MIDI channels (1-16): list or list of lists" "lchan" (list 1)) (om-load-inputfun (quote input-funbox) "relative chords duration (0-100)" "legato" 0))) (om-make-point 174 493) (om-make-point 130 70) (let ((newobj (when (find-class (quote chord-seq) nil) (make-instance (quote chord-seq) :lmidic (quote ((74) (69) (78) (73) (64) (69) (73) (64) (69) (64) (73) (69) (73) (64) (69) (64) (69) (73) (62) (71) (67) (62) (71) (67) (71) (67) (62) (62) (71) (67) (71) (62) (67) (57) (66) (62) (66) (57) (62) (57) (66) (62) (66) (57) (62) (57) (66) (62) (62) (71) (67) (62) (71) (67) (62) (71) (67) (62) (71) (67) (62) (71) (67) (66) (73) (69) (66) (69) (73) (66) (69) (73) (66) (69) (73) (66) (69) (73) (66) (71) (74) (66) (71) (74) (66) (71) (74) (66) (71) (74) (66) (71) (74) (69) (73) (64) (64) (69) (73) (64) (69) (73) (69) (73) (64) (64) (69) (73) (69) (78) (74) (69) (78) (74) (69) (78) (74) (78) (74) (69) (69) (74) (78) (73) (64) (69) (73) (64) (69) (64) (73) (69) (73) (64) (69) (64) (69) (73) (62) (71) (67) (62) (71) (67) (71) (67) (62) (62) (71) (67) (71) (62) (67) (57) (66) (62) (66) (57) (62) (57) (66) (62) (66) (57) (62) (57) (66) (62) (62) (71) (67) (62) (71) (67) (62) (71) (67) (62) (71) (67) (62) (71) (67) (66) (73) (69) (66) (69) (73) (66) (69) (73) (66) (69) (73) (66) (69) (73) (66) (71) (74) (66) (71) (74) (66) (71) (74) (66) (71) (74) (66) (71) (74) (69) (73) (64) (64) (69) (73) (64) (69) (73) (69) (73) (64) (64) (69) (73) (69) (78) (74) (69) (78) (74) (69) (78) (74) (78) (74) (69) (69) (74) (78))) :lonset (quote (327107 327103 327100 326889 326889 326889 326555 326555 326555 326222 326222 326222 325889 325889 325889 325555 325555 325555 325111 325111 325111 324777 324777 324777 324444 324444 324444 324111 324111 324111 323777 323777 323777 323333 323333 323333 323000 323000 323000 322666 322666 322666 322333 322333 322333 322000 322000 322000 321555 321555 321555 321222 321222 321222 320889 320889 320889 320555 320555 320555 320222 320222 320222 319777 319777 319777 319444 319444 319444 319111 319111 319111 318777 318777 318777 318444 318444 318444 318000 318000 318000 317666 317666 317666 317333 317333 317333 317000 317000 317000 316666 316666 316666 316222 316222 316222 315889 315889 315889 315555 315555 315555 315222 315222 315222 314889 314889 314889 314444 314444 314444 314111 314111 314111 313777 313777 313777 313444 313444 313444 313111 313111 313111 312666 312666 312666 312333 312333 312333 312000 312000 312000 311666 311666 311666 311333 311333 311333 310889 310889 310889 310555 310555 310555 310222 310222 310222 309889 309889 309889 309555 309555 309555 309111 309111 309111 308777 308777 308777 308444 308444 308444 308111 308111 308111 307777 307777 307777 307333 307333 307333 307000 307000 307000 306666 306666 306666 306333 306333 306333 306000 306000 306000 305555 305555 305555 305222 305222 305222 304889 304889 304889 304555 304555 304555 304222 304222 304222 303777 303777 303777 303444 303444 303444 303111 303111 303111 302777 302777 302777 302444 302444 302444 302000 302000 302000 301666 301666 301666 301333 301333 301333 301000 301000 301000 300666 300666 300666 300222 300222 300222 299889 299889 299889 299555 299555 299555 299222 299222 299222 298889 298889 298889 327103)) :ldur (quote ((1000) (1000) (1000) (1000) (1000) (1000) (1000) (1000) (1000) (1000) (1000) (1000) (1000) (1000) (1000) (1000) (1000) (1000) (1000) (1000) (1000) (1000) (1000) (1000) (1000) (1000) (1000) (1000) (1000) (1000) (1000) (1000) (1000) (1000) (1000) (1000) (1000) (1000) (1000) (1000) (1000) (1000) (1000) (1000) (1000) (1000) (1000) (1000) (1000) (1000) (1000) (1000) (1000) (1000) (1000) (1000) (1000) (1000) (1000) (1000) (1000) (1000) (1000) (1000) (1000) (1000) (1000) (1000) (1000) (1000) (1000) (1000) (1000) (1000) (1000) (1000) (1000) (1000) (1000) (1000) (1000) (1000) (1000) (1000) (1000) (1000) (1000) (1000) (1000) (1000) (1000) (1000) (1000) (1000) (1000) (1000) (1000) (1000) (1000) (1000) (1000) (1000) (1000) (1000) (1000) (1000) (1000) (1000) (1000) (1000) (1000) (1000) (1000) (1000) (1000) (1000) (1000) (1000) (1000) (1000) (1000) (1000) (1000) (1000) (1000) (1000) (1000) (1000) (1000) (1000) (1000) (1000) (1000) (1000) (1000) (1000) (1000) (1000) (1000) (1000) (1000) (1000) (1000) (1000) (1000) (1000) (1000) (1000) (1000) (1000) (1000) (1000) (1000) (1000) (1000) (1000) (1000) (1000) (1000) (1000) (1000) (1000) (1000) (1000) (1000) (1000) (1000) (1000) (1000) (1000) (1000) (1000) (1000) (1000) (1000) (1000) (1000) (1000) (1000) (1000) (1000) (1000) (1000) (1000) (1000) (1000) (1000) (1000) (1000) (1000) (1000) (1000) (1000) (1000) (1000) (1000) (1000) (1000) (1000) (1000) (1000) (1000) (1000) (1000) (1000) (1000) (1000) (1000) (1000) (1000) (1000) (1000) (1000) (1000) (1000) (1000) (1000) (1000) (1000) (1000) (1000) (1000) (1000) (1000) (1000) (1000) (1000) (1000) (1000) (1000) (1000) (1000) (1000) (1000) (1000) (1000) (1000) (1000) (1000) (1000) (1000) (1000) (1000))) :lvel (quote ((100) (100) (100) (100) (100) (100) (100) (100) (100) (100) (100) (100) (100) (100) (100) (100) (100) (100) (100) (100) (100) (100) (100) (100) (100) (100) (100) (100) (100) (100) (100) (100) (100) (100) (100) (100) (100) (100) (100) (100) (100) (100) (100) (100) (100) (100) (100) (100) (100) (100) (100) (100) (100) (100) (100) (100) (100) (100) (100) (100) (100) (100) (100) (100) (100) (100) (100) (100) (100) (100) (100) (100) (100) (100) (100) (100) (100) (100) (100) (100) (100) (100) (100) (100) (100) (100) (100) (100) (100) (100) (100) (100) (100) (100) (100) (100) (100) (100) (100) (100) (100) (100) (100) (100) (100) (100) (100) (100) (100) (100) (100) (100) (100) (100) (100) (100) (100) (100) (100) (100) (100) (100) (100) (100) (100) (100) (100) (100) (100) (100) (100) (100) (100) (100) (100) (100) (100) (100) (100) (100) (100) (100) (100) (100) (100) (100) (100) (100) (100) (100) (100) (100) (100) (100) (100) (100) (100) (100) (100) (100) (100) (100) (100) (100) (100) (100) (100) (100) (100) (100) (100) (100) (100) (100) (100) (100) (100) (100) (100) (100) (100) (100) (100) (100) (100) (100) (100) (100) (100) (100) (100) (100) (100) (100) (100) (100) (100) (100) (100) (100) (100) (100) (100) (100) (100) (100) (100) (100) (100) (100) (100) (100) (100) (100) (100) (100) (100) (100) (100) (100) (100) (100) (100) (100) (100) (100) (100) (100) (100) (100) (100) (100) (100) (100) (100) (100) (100) (100) (100) (100) (100) (100) (100))) :loffset (quote ((0) (0) (0) (0) (0) (0) (0) (0) (0) (0) (0) (0) (0) (0) (0) (0) (0) (0) (0) (0) (0) (0) (0) (0) (0) (0) (0) (0) (0) (0) (0) (0) (0) (0) (0) (0) (0) (0) (0) (0) (0) (0) (0) (0) (0) (0) (0) (0) (0) (0) (0) (0) (0) (0) (0) (0) (0) (0) (0) (0) (0) (0) (0) (0) (0) (0) (0) (0) (0) (0) (0) (0) (0) (0) (0) (0) (0) (0) (0) (0) (0) (0) (0) (0) (0) (0) (0) (0) (0) (0) (0) (0) (0) (0) (0) (0) (0) (0) (0) (0) (0) (0) (0) (0) (0) (0) (0) (0) (0) (0) (0) (0) (0) (0) (0) (0) (0) (0) (0) (0) (0) (0) (0) (0) (0) (0) (0) (0) (0) (0) (0) (0) (0) (0) (0) (0) (0) (0) (0) (0) (0) (0) (0) (0) (0) (0) (0) (0) (0) (0) (0) (0) (0) (0) (0) (0) (0) (0) (0) (0) (0) (0) (0) (0) (0) (0) (0) (0) (0) (0) (0) (0) (0) (0) (0) (0) (0) (0) (0) (0) (0) (0) (0) (0) (0) (0) (0) (0) (0) (0) (0) (0) (0) (0) (0) (0) (0) (0) (0) (0) (0) (0) (0) (0) (0) (0) (0) (0) (0) (0) (0) (0) (0) (0) (0) (0) (0) (0) (0) (0) (0) (0) (0) (0) (0) (0) (0) (0) (0) (0) (0) (0) (0) (0) (0) (0) (0) (0) (0) (0) (0) (0) (0))) :lchan (quote ((1) (1) (1) (1) (1) (1) (1) (1) (1) (1) (1) (1) (1) (1) (1) (1) (1) (1) (1) (1) (1) (1) (1) (1) (1) (1) (1) (1) (1) (1) (1) (1) (1) (1) (1) (1) (1) (1) (1) (1) (1) (1) (1) (1) (1) (1) (1) (1) (1) (1) (1) (1) (1) (1) (1) (1) (1) (1) (1) (1) (1) (1) (1) (1) (1) (1) (1) (1) (1) (1) (1) (1) (1) (1) (1) (1) (1) (1) (1) (1) (1) (1) (1) (1) (1) (1) (1) (1) (1) (1) (1) (1) (1) (1) (1) (1) (1) (1) (1) (1) (1) (1) (1) (1) (1) (1) (1) (1) (1) (1) (1) (1) (1) (1) (1) (1) (1) (1) (1) (1) (1) (1) (1) (1) (1) (1) (1) (1) (1) (1) (1) (1) (1) (1) (1) (1) (1) (1) (1) (1) (1) (1) (1) (1) (1) (1) (1) (1) (1) (1) (1) (1) (1) (1) (1) (1) (1) (1) (1) (1) (1) (1) (1) (1) (1) (1) (1) (1) (1) (1) (1) (1) (1) (1) (1) (1) (1) (1) (1) (1) (1) (1) (1) (1) (1) (1) (1) (1) (1) (1) (1) (1) (1) (1) (1) (1) (1) (1) (1) (1) (1) (1) (1) (1) (1) (1) (1) (1) (1) (1) (1) (1) (1) (1) (1) (1) (1) (1) (1) (1) (1) (1) (1) (1) (1) (1) (1) (1) (1) (1) (1) (1) (1) (1) (1) (1) (1) (1) (1) (1) (1) (1) (1))) :legato 0)))) (load-port-info newobj (quote ((0) (0) (0) (0) (0) (0) (0) (0) (0) (0) (0) (0) (0) (0) (0) (0) (0) (0) (0) (0) (0) (0) (0) (0) (0) (0) (0) (0) (0) (0) (0) (0) (0) (0) (0) (0) (0) (0) (0) (0) (0) (0) (0) (0) (0) (0) (0) (0) (0) (0) (0) (0) (0) (0) (0) (0) (0) (0) (0) (0) (0) (0) (0) (0) (0) (0) (0) (0) (0) (0) (0) (0) (0) (0) (0) (0) (0) (0) (0) (0) (0) (0) (0) (0) (0) (0) (0) (0) (0) (0) (0) (0) (0) (0) (0) (0) (0) (0) (0) (0) (0) (0) (0) (0) (0) (0) (0) (0) (0) (0) (0) (0) (0) (0) (0) (0) (0) (0) (0) (0) (0) (0) (0) (0) (0) (0) (0) (0) (0) (0) (0) (0) (0) (0) (0) (0) (0) (0) (0) (0) (0) (0) (0) (0) (0) (0) (0) (0) (0) (0) (0) (0) (0) (0) (0) (0) (0) (0) (0) (0) (0) (0) (0) (0) (0) (0) (0) (0) (0) (0) (0) (0) (0) (0) (0) (0) (0) (0) (0) (0) (0) (0) (0) (0) (0) (0) (0) (0) (0) (0) (0) (0) (0) (0) (0) (0) (0) (0) (0) (0) (0) (0) (0) (0) (0) (0) (0) (0) (0) (0) (0) (0) (0) (0) (0) (0) (0) (0) (0) (0) (0) (0) (0) (0) (0) (0) (0) (0) (0) (0) (0) (0) (0) (0) (0) (0) (0) (0) (0) (0) (0) (0) (0)))) (init-mus-color newobj (quote nil)) (set-extra-pairs newobj (quote nil)) (set-patch-pairs newobj (quote ((nil (om-load-patch-abs1 "patch" (quote nil) (quote nil) 6.050003 nil "" (om-make-point 200 200) (om-make-point 400 500)))))) (set-name newobj nil) (set-tonalite newobj nil) newobj) nil nil (pairlis (quote (palette-mode scale show-stems obj-mode score-mode winpos winsize mode grillestep notechancolor? zoom player inport outport deltapict cmnpref staff fontsize approx)) (list 0 nil (quote t) 1 0 (om-make-point 0 0) (om-make-point 1280 752) 0 1000 nil 1 (quote :midishare) 0 nil (om-make-point 0 0) (let ((newobj (make-instance (quote edition-values)))) (setf (paper-size newobj) (om-make-point 600 800)) (setf (top-margin newobj) 2) (setf (left-margin newobj) 1) (setf (right-margin newobj) 1) (setf (bottom-margin newobj) 1) (setf (orientation newobj) nil) (setf (scale newobj) nil) (setf (system-space newobj) (quote (1))) (setf (system-color newobj) (quote nil)) (setf (line-space newobj) 1) (setf (title newobj) nil) (setf (show-title? newobj) nil) (setf (show-page? newobj) nil) (setf (sheet-id newobj) nil) (setf (page-mode newobj) nil) newobj) (quote g) 24 2)) nil nil nil nil) (om-load-boxcall (quote lispfun) "FIRST" (quote first) (quote ((om-load-inputfun (quote input-funbox) "LIST" "LIST" nil))) (om-make-point 130 270) nil nil nil nil 1) (om-load-boxcall (quote lispfun) "SECOND" (quote second) (quote ((om-load-inputfun (quote input-funbox) "LIST" "LIST" nil))) (om-make-point 275 274) nil nil nil nil 1) (om-load-boxin "track number" 1 (om-make-point 270 64) "" "track number" nil nil) (om-load-boxin "midifile" 0 (om-make-point 122 67) "" "midifile" nil nil) (om-load-boxout "output" 0 (om-make-point 335 628) (quote ((om-load-inputfun (quote input-funbox) "" "out" nil))) "chord seq" nil))) (quote ((8 0 0 0 nil 0) (9 0 0 1 nil 0) (3 0 0 2 nil 0) (2 0 1 0 nil 0) (0 0 2 0 nil 0) (4 0 3 0 nil 0) (6 0 4 0 nil 0) (8 0 5 0 nil 0) (11 0 6 0 nil 0) (10 0 6 1 nil 0) (5 0 7 1 nil 0) (9 0 7 2 nil 0) (3 0 7 3 nil 0) (4 0 8 0 nil 0) (4 0 9 0 nil 0) (7 0 12 0 nil 0))) nil 6.050003))
